<svg width="74" height="74" viewBox="0 0 74 74" fill="none" xmlns="http://www.w3.org/2000/svg">
<mask id="mask0_30_696" style="mask-type:alpha" maskUnits="userSpaceOnUse" x="0" y="0" width="74" height="74">
<rect width="74" height="74" fill="#D9D9D9"/>
</mask>
<g mask="url(#mask0_30_696)">
<path d="M43.1667 9.25V15.4167H15.4167V58.5833H58.5833V30.8333H64.75V58.5833C64.75 60.2792 64.1467 61.7314 62.9401 62.9401C61.7314 64.1467 60.2792 64.75 58.5833 64.75H15.4167C13.7208 64.75 12.2686 64.1467 11.0599 62.9401C9.85331 61.7314 9.25 60.2792 9.25 58.5833V15.4167C9.25 13.7208 9.85331 12.2686 11.0599 11.0599C12.2686 9.85331 13.7208 9.25 15.4167 9.25H43.1667ZM58.5833 9.25V15.4167H64.75V21.5833H58.5833V27.75H52.4167V21.5833H46.25V15.4167H52.4167V9.25H58.5833ZM18.5 52.4167H55.5L43.9375 37L34.6875 49.3333L27.75 40.0833L18.5 52.4167Z" fill="#58585A"/>
</g>
</svg>
