<svg width="540" height="605" viewBox="0 0 540 605" fill="none" xmlns="http://www.w3.org/2000/svg">
<g opacity="0.4">
<path opacity="0.05" d="M-113.799 -163.435C-292.427 -72.4196 -363.451 146.17 -272.435 324.799C-181.42 503.427 37.1701 574.451 215.799 483.435C394.427 392.42 465.451 173.83 374.435 -4.79853C283.42 -183.427 64.8299 -254.451 -113.799 -163.435Z" stroke="#F26522" stroke-width="11" stroke-linecap="round" stroke-dasharray="12 16"/>
<path opacity="0.1" d="M-265.543 300.934C-187.708 475.756 17.1121 554.379 191.934 476.544C366.756 398.708 445.379 193.888 367.543 19.0658C289.708 -155.756 84.8879 -234.379 -89.9342 -156.543C-264.756 -78.7076 -343.379 126.112 -265.543 300.934Z" stroke="#F26522" stroke-width="11" stroke-linecap="round" stroke-dasharray="54 21"/>
<path opacity="0.14" d="M-201.795 372.12C-84.6441 511.735 123.505 529.945 263.12 412.795C402.735 295.644 420.945 87.4948 303.795 -52.1199C186.644 -191.735 -21.5053 -209.945 -161.12 -92.7946C-300.735 24.356 -318.945 232.505 -201.795 372.12Z" stroke="#F26522" stroke-width="10" stroke-linecap="round" stroke-dasharray="18 17"/>
<path opacity="0.19" d="M198.179 436.804C351.054 355.519 409.089 165.695 327.804 12.8207C246.519 -140.054 56.6953 -198.089 -96.1793 -116.804C-249.054 -35.5192 -307.089 154.305 -225.804 307.179C-144.519 460.054 45.3047 518.089 198.179 436.804Z" stroke="#F26522" stroke-width="10" stroke-linecap="round" stroke-dasharray="47 35"/>
<path opacity="0.23" d="M-224.374 48.7419C-285.82 200.826 -212.343 373.927 -60.2581 435.374C91.8265 496.82 264.927 423.343 326.374 271.258C387.82 119.174 314.343 -53.9274 162.258 -115.374C10.1735 -176.82 -162.927 -103.343 -224.374 48.7419Z" stroke="#F26522" stroke-width="10" stroke-linecap="round" stroke-dasharray="11 40"/>
<path opacity="0.28" d="M-63.0897 416.25C78.433 479.259 244.239 415.612 307.249 274.09C370.259 132.567 306.612 -33.2395 165.09 -96.2495C23.5669 -159.259 -142.24 -95.6123 -205.25 45.9104C-268.26 187.433 -204.612 353.24 -63.0897 416.25Z" stroke="#F26522" stroke-width="10" stroke-linecap="round" stroke-dasharray="15 39"/>
<path opacity="0.32" d="M-64.73 397.282C66.317 461.198 224.366 406.777 288.282 275.73C352.198 144.683 297.777 -13.3657 166.73 -77.2816C35.683 -141.198 -122.366 -86.777 -186.282 44.27C-250.198 175.317 -195.777 333.366 -64.73 397.282Z" stroke="#F26522" stroke-width="9" stroke-linecap="round" stroke-dasharray="12 21"/>
<path opacity="0.37" d="M267.468 40.0096C201.199 -79.5426 50.5618 -122.737 -68.9904 -56.4684C-188.543 9.80046 -231.737 160.438 -165.468 279.99C-99.1995 399.543 51.4382 442.737 170.99 376.468C290.543 310.199 333.737 159.562 267.468 40.0096Z" stroke="#F26522" stroke-width="9" stroke-linecap="round" stroke-dasharray="33 30"/>
<path opacity="0.41" d="M-112.342 -3.34166C-202.553 86.8694 -202.553 233.131 -112.342 323.342C-22.1305 413.553 124.131 413.553 214.342 323.342C304.553 233.131 304.553 86.8694 214.342 -3.34166C124.131 -93.5528 -22.1305 -93.5528 -112.342 -3.34166Z" stroke="#F26522" stroke-width="9" stroke-linecap="round" stroke-dasharray="49 55"/>
<path opacity="0.46" d="M13.7524 -51.2413C-102.913 -30.67 -180.813 80.5822 -160.241 197.248C-139.67 313.913 -28.4178 391.812 88.2475 371.241C204.913 350.67 282.812 239.418 262.241 122.752C241.67 6.08712 130.418 -71.8125 13.7524 -51.2413Z" stroke="#F26522" stroke-width="8" stroke-linecap="round" stroke-dasharray="22 22"/>
<path opacity="0.5" d="M242.253 108.754C213.951 3.12757 105.38 -59.5558 -0.246171 -31.2533C-105.872 -2.9508 -168.556 105.62 -140.253 211.246C-111.951 316.872 -3.38012 379.556 102.246 351.253C207.872 322.951 270.556 214.38 242.253 108.754Z" stroke="#F26522" stroke-width="8" stroke-linecap="round" stroke-dasharray="41 51"/>
<path opacity="0.55" d="M232.5 160C232.5 59.7603 151.24 -21.5 51 -21.5C-49.2397 -21.5 -130.5 59.7603 -130.5 160C-130.5 260.24 -49.2397 341.5 51 341.5C151.24 341.5 232.5 260.24 232.5 160Z" stroke="#F26522" stroke-width="8" stroke-linecap="round" stroke-dasharray="10 34"/>
<path opacity="0.59" d="M-112.394 182.964C-99.7118 273.204 -16.2766 336.077 73.9636 323.394C164.204 310.712 227.077 227.277 214.394 137.036C201.712 46.7963 118.277 -16.0767 28.0364 -3.39423C-62.2037 9.2882 -125.077 92.7234 -112.394 182.964Z" stroke="#F26522" stroke-width="8" stroke-linecap="round" stroke-dasharray="23 17"/>
<path opacity="0.64" d="M-96.9349 172.943C-89.7869 254.645 -17.7595 315.083 63.9426 307.935C145.645 300.787 206.083 228.76 198.935 147.057C191.787 65.3552 119.76 4.91708 38.0574 12.0651C-43.6448 19.2131 -104.083 91.2404 -96.9349 172.943Z" stroke="#F26522" stroke-width="7" stroke-linecap="round" stroke-dasharray="10 37"/>
<path opacity="0.68" d="M89.593 286.232C159.309 264.918 198.547 191.123 177.232 121.407C155.918 51.6908 82.123 12.4534 12.4069 33.7678C-57.3092 55.0821 -96.5466 128.877 -75.2323 198.593C-53.9179 268.309 19.8769 307.547 89.593 286.232Z" stroke="#F26522" stroke-width="7" stroke-linecap="round" stroke-dasharray="45 22"/>
<path opacity="0.73" d="M38.927 274.867C102.366 281.535 159.2 235.512 165.867 172.073C172.535 108.634 126.512 51.8005 63.073 45.1327C-0.366415 38.465 -57.1995 84.4875 -63.8673 147.927C-70.535 211.366 -24.5125 268.2 38.927 274.867Z" stroke="#F26522" stroke-width="7" stroke-linecap="round" stroke-dasharray="48 26"/>
<path opacity="0.77" d="M73.2702 63.5374C19.9953 51.2379 -33.1631 84.455 -45.4626 137.73C-57.7621 191.005 -24.545 244.163 28.7299 256.463C82.0047 268.762 135.163 235.545 147.463 182.27C159.762 128.995 126.545 75.8368 73.2702 63.5374Z" stroke="#F26522" stroke-width="6" stroke-linecap="round" stroke-dasharray="14 27"/>
<path opacity="0.82" d="M133.387 155.682C131.002 110.181 92.1833 75.2285 46.6823 77.6131C1.18124 79.9977 -33.7715 118.817 -31.3869 164.318C-29.0023 209.819 9.81667 244.772 55.3177 242.387C100.819 240.002 135.772 201.183 133.387 155.682Z" stroke="#F26522" stroke-width="6" stroke-linecap="round" stroke-dasharray="38 50"/>
<path opacity="0.86" d="M32.808 96.5567C-2.23078 106.604 -22.4904 143.153 -12.4432 178.192C-2.39603 213.231 34.1534 233.49 69.1921 223.443C104.231 213.396 124.491 176.847 114.443 141.808C104.396 106.769 67.8467 86.5095 32.808 96.5567Z" stroke="#F26522" stroke-width="6" stroke-linecap="round" stroke-dasharray="47 27"/>
<path opacity="0.91" d="M39.0249 111.97C12.4988 118.584 -3.64333 145.449 2.97035 171.975C9.58403 198.501 36.4491 214.643 62.9751 208.03C89.5012 201.416 105.643 174.551 99.0296 148.025C92.4159 121.499 65.5509 105.357 39.0249 111.97Z" stroke="#F26522" stroke-width="6" stroke-linecap="round" stroke-dasharray="38 28"/>
<path opacity="0.95" d="M83.754 164.022C85.9751 145.932 73.1112 129.467 55.0216 127.246C36.9321 125.025 20.467 137.889 18.2459 155.978C16.0248 174.068 28.8887 190.533 46.9783 192.754C65.0678 194.975 81.5329 182.111 83.754 164.022Z" stroke="#F26522" stroke-width="5" stroke-linecap="round" stroke-dasharray="51 17"/>
<path d="M39.9594 172.262C46.7314 178.359 57.1643 177.813 63.2619 171.041C69.3595 164.269 68.8128 153.836 62.0407 147.738C55.2686 141.641 44.8357 142.187 38.7382 148.959C32.6406 155.731 33.1873 166.164 39.9594 172.262Z" stroke="#F26522" stroke-width="5" stroke-linecap="round" stroke-dasharray="30 17"/>
</g>
</svg>
