<svg width="579" height="605" viewBox="0 0 579 605" fill="none" xmlns="http://www.w3.org/2000/svg">
<g opacity="0.6">
<path opacity="0.05" d="M324.201 116.565C145.573 207.58 74.5489 426.17 165.565 604.799C256.58 783.427 475.17 854.451 653.799 763.435C832.427 672.42 903.451 453.83 812.435 275.201C721.42 96.573 502.83 25.5489 324.201 116.565Z" stroke="#43C5E5" stroke-width="11" stroke-linecap="round" stroke-dasharray="12 16"/>
<path opacity="0.1" d="M172.457 580.934C250.292 755.756 455.112 834.379 629.934 756.544C804.756 678.708 883.379 473.888 805.543 299.066C727.708 124.244 522.888 45.6207 348.066 123.457C173.244 201.292 94.6207 406.112 172.457 580.934Z" stroke="#43C5E5" stroke-width="11" stroke-linecap="round" stroke-dasharray="54 21"/>
<path opacity="0.14" d="M236.205 652.12C353.356 791.735 561.505 809.945 701.12 692.795C840.735 575.644 858.945 367.495 741.795 227.88C624.644 88.2655 416.495 70.0548 276.88 187.205C137.266 304.356 119.055 512.505 236.205 652.12Z" stroke="#43C5E5" stroke-width="10" stroke-linecap="round" stroke-dasharray="18 17"/>
<path opacity="0.19" d="M636.179 716.804C789.054 635.519 847.089 445.695 765.804 292.821C684.519 139.946 494.695 81.911 341.821 163.196C188.946 244.481 130.911 434.305 212.196 587.179C293.481 740.054 483.305 798.089 636.179 716.804Z" stroke="#43C5E5" stroke-width="10" stroke-linecap="round" stroke-dasharray="47 35"/>
<path opacity="0.23" d="M213.626 328.742C152.18 480.826 225.657 653.927 377.742 715.374C529.826 776.82 702.927 703.343 764.374 551.258C825.82 399.174 752.343 226.073 600.258 164.626C448.174 103.18 275.073 176.657 213.626 328.742Z" stroke="#43C5E5" stroke-width="10" stroke-linecap="round" stroke-dasharray="11 40"/>
<path opacity="0.28" d="M374.91 696.25C516.433 759.259 682.239 695.612 745.249 554.09C808.259 412.567 744.612 246.76 603.09 183.751C461.567 120.741 295.76 184.388 232.75 325.91C169.74 467.433 233.388 633.24 374.91 696.25Z" stroke="#43C5E5" stroke-width="10" stroke-linecap="round" stroke-dasharray="15 39"/>
<path opacity="0.32" d="M373.27 677.282C504.317 741.198 662.366 686.777 726.282 555.73C790.198 424.683 735.777 266.634 604.73 202.718C473.683 138.802 315.634 193.223 251.718 324.27C187.802 455.317 242.223 613.366 373.27 677.282Z" stroke="#43C5E5" stroke-width="9" stroke-linecap="round" stroke-dasharray="12 21"/>
<path opacity="0.37" d="M705.468 320.01C639.199 200.457 488.562 157.263 369.01 223.532C249.457 289.8 206.263 440.438 272.532 559.99C338.8 679.543 489.438 722.737 608.99 656.468C728.543 590.199 771.737 439.562 705.468 320.01Z" stroke="#43C5E5" stroke-width="9" stroke-linecap="round" stroke-dasharray="33 30"/>
<path opacity="0.41" d="M325.658 276.658C235.447 366.869 235.447 513.131 325.658 603.342C415.869 693.553 562.131 693.553 652.342 603.342C742.553 513.131 742.553 366.869 652.342 276.658C562.131 186.447 415.869 186.447 325.658 276.658Z" stroke="#43C5E5" stroke-width="9" stroke-linecap="round" stroke-dasharray="49 55"/>
<path opacity="0.46" d="M451.752 228.759C335.087 249.33 257.187 360.582 277.759 477.248C298.33 593.913 409.582 671.812 526.248 651.241C642.913 630.67 720.812 519.418 700.241 402.752C679.67 286.087 568.418 208.187 451.752 228.759Z" stroke="#43C5E5" stroke-width="8" stroke-linecap="round" stroke-dasharray="22 22"/>
<path opacity="0.5" d="M680.253 388.754C651.951 283.128 543.38 220.444 437.754 248.747C332.128 277.049 269.444 385.62 297.747 491.246C326.049 596.872 434.62 659.556 540.246 631.253C645.873 602.951 708.556 494.38 680.253 388.754Z" stroke="#43C5E5" stroke-width="8" stroke-linecap="round" stroke-dasharray="41 51"/>
<path opacity="0.55" d="M670.5 440C670.5 339.76 589.24 258.5 489 258.5C388.76 258.5 307.5 339.76 307.5 440C307.5 540.24 388.76 621.5 489 621.5C589.24 621.5 670.5 540.24 670.5 440Z" stroke="#43C5E5" stroke-width="8" stroke-linecap="round" stroke-dasharray="10 34"/>
<path opacity="0.59" d="M325.606 462.964C338.288 553.204 421.723 616.077 511.964 603.394C602.204 590.712 665.077 507.277 652.394 417.036C639.712 326.796 556.277 263.923 466.036 276.606C375.796 289.288 312.923 372.723 325.606 462.964Z" stroke="#43C5E5" stroke-width="8" stroke-linecap="round" stroke-dasharray="23 17"/>
<path opacity="0.64" d="M341.065 452.943C348.213 534.645 420.24 595.083 501.943 587.935C583.645 580.787 644.083 508.76 636.935 427.057C629.787 345.355 557.76 284.917 476.057 292.065C394.355 299.213 333.917 371.24 341.065 452.943Z" stroke="#43C5E5" stroke-width="7" stroke-linecap="round" stroke-dasharray="10 37"/>
<path opacity="0.68" d="M527.593 566.232C597.309 544.918 636.547 471.123 615.232 401.407C593.918 331.691 520.123 292.453 450.407 313.768C380.691 335.082 341.453 408.877 362.768 478.593C384.082 548.309 457.877 587.547 527.593 566.232Z" stroke="#43C5E5" stroke-width="7" stroke-linecap="round" stroke-dasharray="45 22"/>
<path opacity="0.73" d="M476.927 554.867C540.366 561.535 597.2 515.512 603.867 452.073C610.535 388.634 564.513 331.8 501.073 325.133C437.634 318.465 380.801 364.488 374.133 427.927C367.465 491.366 413.488 548.2 476.927 554.867Z" stroke="#43C5E5" stroke-width="7" stroke-linecap="round" stroke-dasharray="48 26"/>
<path opacity="0.77" d="M511.27 343.537C457.995 331.238 404.837 364.455 392.537 417.73C380.238 471.005 413.455 524.163 466.73 536.463C520.005 548.762 573.163 515.545 585.463 462.27C597.762 408.995 564.545 355.837 511.27 343.537Z" stroke="#43C5E5" stroke-width="6" stroke-linecap="round" stroke-dasharray="14 27"/>
<path opacity="0.82" d="M571.387 435.682C569.002 390.181 530.183 355.228 484.682 357.613C439.181 359.998 404.228 398.817 406.613 444.318C408.998 489.819 447.817 524.772 493.318 522.387C538.819 520.002 573.772 481.183 571.387 435.682Z" stroke="#43C5E5" stroke-width="6" stroke-linecap="round" stroke-dasharray="38 50"/>
<path opacity="0.86" d="M470.808 376.557C435.769 386.604 415.51 423.153 425.557 458.192C435.604 493.231 472.153 513.49 507.192 503.443C542.231 493.396 562.491 456.847 552.443 421.808C542.396 386.769 505.847 366.51 470.808 376.557Z" stroke="#43C5E5" stroke-width="6" stroke-linecap="round" stroke-dasharray="47 27"/>
<path opacity="0.91" d="M477.025 391.97C450.499 398.584 434.357 425.449 440.97 451.975C447.584 478.501 474.449 494.643 500.975 488.03C527.501 481.416 543.643 454.551 537.03 428.025C530.416 401.499 503.551 385.357 477.025 391.97Z" stroke="#43C5E5" stroke-width="6" stroke-linecap="round" stroke-dasharray="38 28"/>
<path opacity="0.95" d="M521.754 444.022C523.975 425.932 511.111 409.467 493.022 407.246C474.932 405.025 458.467 417.889 456.246 435.978C454.025 454.068 466.889 470.533 484.978 472.754C503.068 474.975 519.533 462.111 521.754 444.022Z" stroke="#43C5E5" stroke-width="5" stroke-linecap="round" stroke-dasharray="51 17"/>
<path d="M477.959 452.262C484.731 458.359 495.164 457.813 501.262 451.041C507.36 444.269 506.813 433.836 500.041 427.738C493.269 421.641 482.836 422.187 476.738 428.959C470.641 435.731 471.187 446.164 477.959 452.262Z" stroke="#43C5E5" stroke-width="5" stroke-linecap="round" stroke-dasharray="30 17"/>
</g>
</svg>
