<svg width="1253" height="150" viewBox="0 0 1253 150" fill="none" xmlns="http://www.w3.org/2000/svg">
<g opacity="0.4">
<path opacity="0.05" d="M414.777 -413.894C185.702 -297.175 94.6199 -16.8525 211.34 212.223C328.059 441.298 608.381 532.38 837.457 415.66C1066.53 298.941 1157.61 18.6187 1040.89 -210.457C924.175 -439.532 643.853 -530.614 414.777 -413.894Z" stroke="#F26522" stroke-width="11" stroke-linecap="round" stroke-dasharray="12 16"/>
<path opacity="0.1" d="M220.178 181.619C319.996 405.813 582.659 506.64 806.853 406.822C1031.05 307.005 1131.87 44.3413 1032.06 -179.853C932.239 -404.047 669.575 -504.874 445.381 -405.056C221.187 -305.238 120.361 -42.5752 220.178 181.619Z" stroke="#F26522" stroke-width="11" stroke-linecap="round" stroke-dasharray="54 21"/>
<path opacity="0.14" d="M301.93 272.908C452.166 451.952 719.099 475.305 898.142 325.07C1077.19 174.835 1100.54 -92.0985 950.304 -271.142C800.069 -450.185 533.136 -473.539 354.092 -323.304C175.049 -173.068 151.695 93.8647 301.93 272.908Z" stroke="#F26522" stroke-width="10" stroke-linecap="round" stroke-dasharray="18 17"/>
<path opacity="0.19" d="M814.862 355.86C1010.91 251.619 1085.33 8.18679 981.094 -187.861C876.853 -383.91 633.421 -458.334 437.373 -354.094C241.324 -249.853 166.9 -6.42072 271.14 189.628C375.381 385.676 618.813 460.101 814.862 355.86Z" stroke="#F26522" stroke-width="10" stroke-linecap="round" stroke-dasharray="47 35"/>
<path opacity="0.23" d="M272.975 -141.796C194.175 53.2394 288.403 275.226 483.438 354.025C678.473 432.825 900.46 338.597 979.259 143.562C1058.06 -51.4733 963.831 -273.46 768.796 -352.259C573.761 -431.059 351.774 -336.831 272.975 -141.796Z" stroke="#F26522" stroke-width="10" stroke-linecap="round" stroke-dasharray="11 40"/>
<path opacity="0.28" d="M479.807 329.5C661.297 410.305 873.93 328.683 954.734 147.193C1035.54 -34.2974 953.917 -246.93 772.427 -327.734C590.937 -408.539 378.304 -326.917 297.5 -145.427C216.695 36.0635 298.317 248.696 479.807 329.5Z" stroke="#F26522" stroke-width="10" stroke-linecap="round" stroke-dasharray="15 39"/>
<path opacity="0.32" d="M477.704 305.176C645.76 387.142 848.443 317.353 930.41 149.297C1012.38 -18.7597 942.587 -221.443 774.531 -303.41C606.474 -385.376 403.791 -315.587 321.824 -147.53C239.858 20.5258 309.647 223.209 477.704 305.176Z" stroke="#F26522" stroke-width="9" stroke-linecap="round" stroke-dasharray="12 21"/>
<path opacity="0.37" d="M903.719 -152.994C818.735 -306.309 625.555 -361.703 472.24 -276.719C318.925 -191.735 263.531 1.44495 348.515 154.76C433.499 308.075 626.679 363.469 779.994 278.485C933.309 193.501 988.703 0.32108 903.719 -152.994Z" stroke="#F26522" stroke-width="9" stroke-linecap="round" stroke-dasharray="33 30"/>
<path opacity="0.41" d="M416.646 -208.588C300.958 -92.9005 300.958 94.6665 416.646 210.354C532.334 326.042 719.901 326.042 835.588 210.354C951.276 94.6665 951.276 -92.9005 835.588 -208.588C719.901 -324.276 532.334 -324.276 416.646 -208.588Z" stroke="#F26522" stroke-width="9" stroke-linecap="round" stroke-dasharray="49 55"/>
<path opacity="0.46" d="M578.35 -270.015C428.737 -243.634 328.838 -100.963 355.219 48.6497C381.6 198.263 524.271 298.162 673.884 271.781C823.497 245.4 923.396 102.729 897.015 -46.8837C870.634 -196.497 727.963 -296.396 578.35 -270.015Z" stroke="#F26522" stroke-width="8" stroke-linecap="round" stroke-dasharray="22 22"/>
<path opacity="0.5" d="M871.383 -64.8356C835.087 -200.292 695.855 -280.678 560.398 -244.382C424.942 -208.087 344.556 -68.8546 380.852 66.6017C417.147 202.058 556.379 282.444 691.836 246.149C827.292 209.853 907.678 70.6208 871.383 -64.8356Z" stroke="#F26522" stroke-width="8" stroke-linecap="round" stroke-dasharray="41 51"/>
<path opacity="0.55" d="M858.875 0.882996C858.875 -127.666 754.666 -231.875 626.117 -231.875C497.569 -231.875 393.359 -127.666 393.359 0.882996C393.359 129.432 497.569 233.641 626.117 233.641C754.666 233.641 858.875 129.432 858.875 0.882996Z" stroke="#F26522" stroke-width="8" stroke-linecap="round" stroke-dasharray="10 34"/>
<path opacity="0.59" d="M416.578 30.3318C432.842 146.057 539.841 226.686 655.566 210.422C771.291 194.158 851.92 87.1593 835.656 -28.5657C819.392 -144.291 712.393 -224.92 596.668 -208.656C480.943 -192.392 400.314 -85.3932 416.578 30.3318Z" stroke="#F26522" stroke-width="8" stroke-linecap="round" stroke-dasharray="23 17"/>
<path opacity="0.64" d="M436.404 17.4809C445.57 122.257 537.939 199.763 642.715 190.597C747.491 181.43 824.997 89.0611 815.831 -15.7147C806.664 -120.491 714.295 -197.997 609.519 -188.83C504.744 -179.664 427.237 -87.295 436.404 17.4809Z" stroke="#F26522" stroke-width="7" stroke-linecap="round" stroke-dasharray="10 37"/>
<path opacity="0.68" d="M675.609 162.765C765.014 135.431 815.333 40.7956 787.999 -48.6092C760.665 -138.014 666.03 -188.332 576.625 -160.999C487.22 -133.665 436.902 -39.0296 464.235 50.3752C491.569 139.78 586.204 190.099 675.609 162.765Z" stroke="#F26522" stroke-width="7" stroke-linecap="round" stroke-dasharray="45 22"/>
<path opacity="0.73" d="M610.635 148.19C691.99 156.741 764.873 97.7212 773.424 16.3657C781.975 -64.9898 722.955 -137.873 641.6 -146.424C560.244 -154.975 487.361 -95.955 478.81 -14.5996C470.259 66.7559 529.279 139.639 610.635 148.19Z" stroke="#F26522" stroke-width="7" stroke-linecap="round" stroke-dasharray="48 26"/>
<path opacity="0.77" d="M654.677 -122.822C586.356 -138.595 518.185 -95.9968 502.412 -27.6765C486.639 40.6438 529.237 108.815 597.558 124.588C665.878 140.361 734.049 97.7628 749.822 29.4425C765.595 -38.8778 722.997 -107.049 654.677 -122.822Z" stroke="#F26522" stroke-width="6" stroke-linecap="round" stroke-dasharray="14 27"/>
<path opacity="0.82" d="M731.771 -4.65406C728.713 -63.0051 678.931 -107.829 620.58 -104.771C562.229 -101.713 517.405 -51.931 520.463 6.42012C523.521 64.7712 573.303 109.595 631.654 106.537C690.005 103.479 734.829 53.697 731.771 -4.65406Z" stroke="#F26522" stroke-width="6" stroke-linecap="round" stroke-dasharray="38 50"/>
<path opacity="0.86" d="M602.787 -80.4774C557.853 -67.5927 531.872 -20.7214 544.757 24.2127C557.641 69.1468 604.513 95.1281 649.447 82.2434C694.381 69.3588 720.362 22.4874 707.478 -22.4467C694.593 -67.3808 647.722 -93.362 602.787 -80.4774Z" stroke="#F26522" stroke-width="6" stroke-linecap="round" stroke-dasharray="47 27"/>
<path opacity="0.91" d="M610.76 -60.7107C576.743 -52.2293 556.042 -17.7772 564.523 16.2401C573.005 50.2574 607.457 70.9583 641.474 62.4768C675.491 53.9953 696.192 19.5433 687.711 -14.474C679.229 -48.4913 644.777 -69.1922 610.76 -60.7107Z" stroke="#F26522" stroke-width="6" stroke-linecap="round" stroke-dasharray="38 28"/>
<path opacity="0.95" d="M668.121 6.04051C670.97 -17.1577 654.473 -38.2727 631.275 -41.1211C608.076 -43.9695 586.961 -27.4727 584.113 -4.27441C581.265 18.9238 597.761 40.0388 620.96 42.8872C644.158 45.7356 665.273 29.2388 668.121 6.04051Z" stroke="#F26522" stroke-width="5" stroke-linecap="round" stroke-dasharray="51 17"/>
<path d="M611.958 16.6078C620.643 24.4274 634.022 23.7263 641.842 15.0417C649.662 6.35714 648.96 -7.02214 640.276 -14.8418C631.591 -22.6614 618.212 -21.9602 610.392 -13.2756C602.573 -4.59107 603.274 8.78821 611.958 16.6078Z" stroke="#F26522" stroke-width="5" stroke-linecap="round" stroke-dasharray="30 17"/>
</g>
</svg>
